%TF.GenerationSoftware,KiCad,Pcbnew,9.0.1*%
%TF.CreationDate,2025-05-23T10:14:42-03:00*%
%TF.ProjectId,_autosave-UccMicroDuino,5f617574-6f73-4617-9665-2d5563634d69,rev?*%
%TF.SameCoordinates,Original*%
%TF.FileFunction,Copper,L1,Top*%
%TF.FilePolarity,Positive*%
%FSLAX46Y46*%
G04 Gerber Fmt 4.6, Leading zero omitted, Abs format (unit mm)*
G04 Created by KiCad (PCBNEW 9.0.1) date 2025-05-23 10:14:42*
%MOMM*%
%LPD*%
G01*
G04 APERTURE LIST*
G04 Aperture macros list*
%AMRoundRect*
0 Rectangle with rounded corners*
0 $1 Rounding radius*
0 $2 $3 $4 $5 $6 $7 $8 $9 X,Y pos of 4 corners*
0 Add a 4 corners polygon primitive as box body*
4,1,4,$2,$3,$4,$5,$6,$7,$8,$9,$2,$3,0*
0 Add four circle primitives for the rounded corners*
1,1,$1+$1,$2,$3*
1,1,$1+$1,$4,$5*
1,1,$1+$1,$6,$7*
1,1,$1+$1,$8,$9*
0 Add four rect primitives between the rounded corners*
20,1,$1+$1,$2,$3,$4,$5,0*
20,1,$1+$1,$4,$5,$6,$7,0*
20,1,$1+$1,$6,$7,$8,$9,0*
20,1,$1+$1,$8,$9,$2,$3,0*%
G04 Aperture macros list end*
%TA.AperFunction,SMDPad,CuDef*%
%ADD10RoundRect,0.250000X0.600000X-0.400000X0.600000X0.400000X-0.600000X0.400000X-0.600000X-0.400000X0*%
%TD*%
%TA.AperFunction,SMDPad,CuDef*%
%ADD11R,1.700000X0.650000*%
%TD*%
%TA.AperFunction,SMDPad,CuDef*%
%ADD12RoundRect,0.250000X0.350000X0.450000X-0.350000X0.450000X-0.350000X-0.450000X0.350000X-0.450000X0*%
%TD*%
%TA.AperFunction,SMDPad,CuDef*%
%ADD13R,1.000000X1.000000*%
%TD*%
%TA.AperFunction,SMDPad,CuDef*%
%ADD14R,1.500000X7.500000*%
%TD*%
%TA.AperFunction,SMDPad,CuDef*%
%ADD15R,1.000000X6.500000*%
%TD*%
%TA.AperFunction,SMDPad,CuDef*%
%ADD16RoundRect,0.225000X0.375000X-0.225000X0.375000X0.225000X-0.375000X0.225000X-0.375000X-0.225000X0*%
%TD*%
%TA.AperFunction,SMDPad,CuDef*%
%ADD17RoundRect,0.250000X-0.350000X-0.450000X0.350000X-0.450000X0.350000X0.450000X-0.350000X0.450000X0*%
%TD*%
%TA.AperFunction,SMDPad,CuDef*%
%ADD18RoundRect,0.250000X0.450000X-0.350000X0.450000X0.350000X-0.450000X0.350000X-0.450000X-0.350000X0*%
%TD*%
%TA.AperFunction,ComponentPad*%
%ADD19R,1.700000X1.700000*%
%TD*%
%TA.AperFunction,ComponentPad*%
%ADD20C,1.700000*%
%TD*%
%TA.AperFunction,SMDPad,CuDef*%
%ADD21RoundRect,0.250000X0.337500X0.475000X-0.337500X0.475000X-0.337500X-0.475000X0.337500X-0.475000X0*%
%TD*%
%TA.AperFunction,SMDPad,CuDef*%
%ADD22RoundRect,0.250000X-0.450000X0.350000X-0.450000X-0.350000X0.450000X-0.350000X0.450000X0.350000X0*%
%TD*%
%TA.AperFunction,Conductor*%
%ADD23C,0.600000*%
%TD*%
%TA.AperFunction,Profile*%
%ADD24C,0.100000*%
%TD*%
G04 APERTURE END LIST*
D10*
%TO.P,D1,1,K*%
%TO.N,+5V*%
X204000000Y-100500000D03*
%TO.P,D1,2,A*%
%TO.N,Net-(D1-A)*%
X204000000Y-97000000D03*
%TD*%
D11*
%TO.P,U1,1,~{RESET}/PB5*%
%TO.N,Net-(J1-Pin_9)*%
X231650000Y-118405000D03*
%TO.P,U1,2,XTAL1/PB3*%
%TO.N,Net-(J1-Pin_7)*%
X231650000Y-117135000D03*
%TO.P,U1,3,XTAL2/PB4*%
%TO.N,Net-(J1-Pin_8)*%
X231650000Y-115865000D03*
%TO.P,U1,4,GND*%
%TO.N,GND*%
X231650000Y-114595000D03*
%TO.P,U1,5,AREF/PB0*%
%TO.N,Net-(J1-Pin_4)*%
X224350000Y-114595000D03*
%TO.P,U1,6,PB1*%
%TO.N,Net-(D6-A)*%
X224350000Y-115865000D03*
%TO.P,U1,7,PB2*%
%TO.N,Net-(J1-Pin_6)*%
X224350000Y-117135000D03*
%TO.P,U1,8,VCC*%
%TO.N,+5V*%
X224350000Y-118405000D03*
%TD*%
D12*
%TO.P,R6,1*%
%TO.N,Net-(D3-K)*%
X239000000Y-98000000D03*
%TO.P,R6,2*%
%TO.N,GND*%
X237000000Y-98000000D03*
%TD*%
D13*
%TO.P,D6,1,K*%
%TO.N,Net-(D6-K)*%
X215500000Y-118500000D03*
%TO.P,D6,2,A*%
%TO.N,Net-(D6-A)*%
X215500000Y-115700000D03*
%TD*%
D14*
%TO.P,J2,1,VBUS*%
%TO.N,Net-(D1-A)*%
X204000000Y-91000000D03*
D15*
%TO.P,J2,2,D-*%
%TO.N,Net-(D2-K)*%
X206500000Y-91500000D03*
%TO.P,J2,3,D+*%
%TO.N,Net-(D5-K)*%
X208500000Y-91500000D03*
D14*
%TO.P,J2,4,GND*%
%TO.N,GND*%
X211000000Y-91000000D03*
%TD*%
D16*
%TO.P,D5,1,K*%
%TO.N,Net-(D5-K)*%
X215000000Y-102000000D03*
%TO.P,D5,2,A*%
%TO.N,GND*%
X215000000Y-98700000D03*
%TD*%
D17*
%TO.P,R4,1*%
%TO.N,Net-(D2-K)*%
X208500000Y-103000000D03*
%TO.P,R4,2*%
%TO.N,Net-(J1-Pin_7)*%
X210500000Y-103000000D03*
%TD*%
D13*
%TO.P,D3,1,K*%
%TO.N,Net-(D3-K)*%
X241000000Y-98000000D03*
%TO.P,D3,2,A*%
%TO.N,+5V*%
X243800000Y-98000000D03*
%TD*%
D17*
%TO.P,R1,1*%
%TO.N,+5V*%
X204000000Y-103000000D03*
%TO.P,R1,2*%
%TO.N,Net-(D2-K)*%
X206000000Y-103000000D03*
%TD*%
D18*
%TO.P,R5,1*%
%TO.N,Net-(J1-Pin_8)*%
X215000000Y-106000000D03*
%TO.P,R5,2*%
%TO.N,Net-(D5-K)*%
X215000000Y-104000000D03*
%TD*%
D19*
%TO.P,J1,1,Pin_1*%
%TO.N,+5V*%
X215220000Y-126500000D03*
D20*
%TO.P,J1,2,Pin_2*%
%TO.N,GND*%
X217760000Y-126500000D03*
%TO.P,J1,3,Pin_3*%
%TO.N,unconnected-(J1-Pin_3-Pad3)*%
X220300000Y-126500000D03*
%TO.P,J1,4,Pin_4*%
%TO.N,Net-(J1-Pin_4)*%
X222840000Y-126500000D03*
%TO.P,J1,5,Pin_5*%
%TO.N,Net-(D6-A)*%
X225380000Y-126500000D03*
%TO.P,J1,6,Pin_6*%
%TO.N,Net-(J1-Pin_6)*%
X227920000Y-126500000D03*
%TO.P,J1,7,Pin_7*%
%TO.N,Net-(J1-Pin_7)*%
X230460000Y-126500000D03*
%TO.P,J1,8,Pin_8*%
%TO.N,Net-(J1-Pin_8)*%
X233000000Y-126500000D03*
%TO.P,J1,9,Pin_9*%
%TO.N,Net-(J1-Pin_9)*%
X235540000Y-126500000D03*
%TO.P,J1,10,Pin_10*%
%TO.N,unconnected-(J1-Pin_10-Pad10)*%
X238080000Y-126500000D03*
%TD*%
D21*
%TO.P,C1,1*%
%TO.N,+5V*%
X240750000Y-104000000D03*
%TO.P,C1,2*%
%TO.N,GND*%
X238675000Y-104000000D03*
%TD*%
D16*
%TO.P,D2,1,K*%
%TO.N,Net-(D2-K)*%
X212000000Y-101300000D03*
%TO.P,D2,2,A*%
%TO.N,GND*%
X212000000Y-98000000D03*
%TD*%
D22*
%TO.P,R3,1*%
%TO.N,Net-(D6-K)*%
X215750000Y-121250000D03*
%TO.P,R3,2*%
%TO.N,GND*%
X215750000Y-123250000D03*
%TD*%
D23*
%TO.N,GND*%
X217760000Y-125260000D02*
X217760000Y-126500000D01*
X215750000Y-123250000D02*
X217760000Y-125260000D01*
X217700000Y-98700000D02*
X218000000Y-99000000D01*
X238675000Y-104000000D02*
X240431999Y-105756999D01*
X212000000Y-98000000D02*
X212000000Y-92000000D01*
X231750000Y-114495000D02*
X231650000Y-114595000D01*
X238675000Y-100675000D02*
X238675000Y-104000000D01*
X218000000Y-99000000D02*
X230750000Y-99000000D01*
X230750000Y-99000000D02*
X231750000Y-100000000D01*
X214300000Y-98000000D02*
X215000000Y-98700000D01*
X237000000Y-98000000D02*
X237000000Y-99000000D01*
X240431999Y-105756999D02*
X240431999Y-127568001D01*
X212000000Y-98000000D02*
X214300000Y-98000000D01*
X215000000Y-98700000D02*
X217700000Y-98700000D01*
X220111000Y-128851000D02*
X217760000Y-126500000D01*
X233750000Y-98000000D02*
X237000000Y-98000000D01*
X212000000Y-92000000D02*
X211000000Y-91000000D01*
X231750000Y-100000000D02*
X233750000Y-98000000D01*
X237000000Y-99000000D02*
X238675000Y-100675000D01*
X239149000Y-128851000D02*
X220111000Y-128851000D01*
X240431999Y-127568001D02*
X239149000Y-128851000D01*
X231750000Y-100000000D02*
X231750000Y-114495000D01*
%TO.N,Net-(D1-A)*%
X204000000Y-91000000D02*
X204000000Y-97000000D01*
%TO.N,+5V*%
X208735000Y-120015000D02*
X204000000Y-115280000D01*
X225800000Y-118405000D02*
X226703000Y-117502000D01*
X226703000Y-117502000D02*
X226703000Y-113298208D01*
X215220000Y-126500000D02*
X208735000Y-120015000D01*
X243800000Y-100950000D02*
X240750000Y-104000000D01*
X204000000Y-115280000D02*
X204000000Y-103000000D01*
X218471000Y-129751000D02*
X215220000Y-126500000D01*
X241332998Y-104582998D02*
X240750000Y-104000000D01*
X204000000Y-103000000D02*
X204000000Y-100500000D01*
X226703000Y-113298208D02*
X225654792Y-112250000D01*
X225654792Y-112250000D02*
X216500000Y-112250000D01*
X241332998Y-128066002D02*
X239648000Y-129751000D01*
X241332998Y-128066002D02*
X241332998Y-104582998D01*
X239648000Y-129751000D02*
X218471000Y-129751000D01*
X216500000Y-112250000D02*
X208735000Y-120015000D01*
X243800000Y-98000000D02*
X243800000Y-100950000D01*
X224350000Y-118405000D02*
X225800000Y-118405000D01*
%TO.N,Net-(D2-K)*%
X206000000Y-103000000D02*
X208500000Y-103000000D01*
X208500000Y-103000000D02*
X208500000Y-102300000D01*
X206000000Y-92500000D02*
X206000000Y-103000000D01*
X209500000Y-101300000D02*
X212000000Y-101300000D01*
X206500000Y-91500000D02*
X206500000Y-92000000D01*
X208500000Y-102300000D02*
X209500000Y-101300000D01*
X206500000Y-92000000D02*
X206000000Y-92500000D01*
%TO.N,Net-(D3-K)*%
X239000000Y-98000000D02*
X241000000Y-98000000D01*
%TO.N,Net-(D5-K)*%
X212474626Y-100249000D02*
X213249000Y-100249000D01*
X208500000Y-91500000D02*
X208500000Y-96274374D01*
X208500000Y-96274374D02*
X212474626Y-100249000D01*
X213249000Y-100249000D02*
X215000000Y-102000000D01*
X215000000Y-102000000D02*
X215000000Y-104000000D01*
%TO.N,Net-(D6-K)*%
X215500000Y-118500000D02*
X215500000Y-121000000D01*
X215500000Y-121000000D02*
X215750000Y-121250000D01*
%TO.N,Net-(D6-A)*%
X218149000Y-113051000D02*
X215500000Y-115700000D01*
X223238794Y-115865000D02*
X222000000Y-117103794D01*
X224350000Y-115865000D02*
X225457000Y-115865000D01*
X225000000Y-123000000D02*
X225000000Y-124490000D01*
X225801000Y-115521000D02*
X225801000Y-113701000D01*
X225151000Y-113051000D02*
X218149000Y-113051000D01*
X225801000Y-113701000D02*
X225151000Y-113051000D01*
X222000000Y-120000000D02*
X225000000Y-123000000D01*
X222000000Y-117103794D02*
X222000000Y-120000000D01*
X225000000Y-124490000D02*
X225380000Y-124870000D01*
X225457000Y-115865000D02*
X225801000Y-115521000D01*
X224350000Y-115865000D02*
X223238794Y-115865000D01*
X225380000Y-124870000D02*
X225380000Y-126500000D01*
%TO.N,Net-(J1-Pin_4)*%
X223000000Y-123500000D02*
X223000000Y-126340000D01*
X224350000Y-114595000D02*
X222900000Y-114595000D01*
X223000000Y-126340000D02*
X222840000Y-126500000D01*
X221000000Y-121500000D02*
X223000000Y-123500000D01*
X221000000Y-116495000D02*
X221000000Y-121500000D01*
X222900000Y-114595000D02*
X221000000Y-116495000D01*
%TO.N,Net-(J1-Pin_7)*%
X229610000Y-117725000D02*
X229610000Y-125650000D01*
X227603000Y-114538000D02*
X227603000Y-112925416D01*
X231650000Y-117135000D02*
X230200000Y-117135000D01*
X214001000Y-107201000D02*
X210500000Y-103700000D01*
X230200000Y-117135000D02*
X227603000Y-114538000D01*
X220701000Y-107201000D02*
X214001000Y-107201000D01*
X231650000Y-117135000D02*
X230200000Y-117135000D01*
X210500000Y-103700000D02*
X210500000Y-103000000D01*
X224850000Y-111350000D02*
X220701000Y-107201000D01*
X227603000Y-112925416D02*
X226027584Y-111350000D01*
X230200000Y-117135000D02*
X229610000Y-117725000D01*
X226027584Y-111350000D02*
X224850000Y-111350000D01*
X229610000Y-125650000D02*
X230460000Y-126500000D01*
%TO.N,Net-(J1-Pin_6)*%
X222900000Y-119127208D02*
X227920000Y-124147208D01*
X224350000Y-117135000D02*
X223243000Y-117135000D01*
X227920000Y-124147208D02*
X227920000Y-126500000D01*
X223243000Y-117135000D02*
X222900000Y-117478000D01*
X222900000Y-117478000D02*
X222900000Y-119127208D01*
%TO.N,Net-(J1-Pin_9)*%
X231650000Y-122610000D02*
X235540000Y-126500000D01*
X231650000Y-118405000D02*
X231650000Y-122610000D01*
%TO.N,Net-(J1-Pin_8)*%
X230656000Y-115865000D02*
X231650000Y-115865000D01*
X234451000Y-127951000D02*
X233000000Y-126500000D01*
X217001000Y-104699000D02*
X219490000Y-104699000D01*
X215000000Y-106000000D02*
X215700000Y-106000000D01*
X219490000Y-104699000D02*
X225241000Y-110450000D01*
X239531000Y-127101024D02*
X238681024Y-127951000D01*
X228550000Y-113759000D02*
X230656000Y-115865000D01*
X232757000Y-115865000D02*
X239531000Y-122639000D01*
X228550000Y-112504416D02*
X228550000Y-113759000D01*
X225241000Y-110450000D02*
X226495584Y-110450000D01*
X226495584Y-110450000D02*
X228550000Y-112504416D01*
X215700000Y-106000000D02*
X217001000Y-104699000D01*
X239531000Y-122639000D02*
X239531000Y-127101024D01*
X238681024Y-127951000D02*
X234451000Y-127951000D01*
X231650000Y-115865000D02*
X232757000Y-115865000D01*
%TD*%
D24*
X214000000Y-95000000D02*
X247000000Y-95000000D01*
X247000000Y-131000000D01*
X202000000Y-131000000D01*
X202000000Y-86000000D01*
X214000000Y-86000000D01*
X214000000Y-95000000D01*
M02*
